<svg id="Capa_1" enable-background="new 0 0 512 512" height="512" viewBox="0 0 512 512" width="512" xmlns="http://www.w3.org/2000/svg" xmlns:xlink="http://www.w3.org/1999/xlink"><linearGradient id="SVGID_1_" gradientUnits="userSpaceOnUse" x1="432.823" x2="96.822" y1="525.487" y2="25.486"><stop offset=".0023" stop-color="#ff9494"/><stop offset=".992" stop-color="#ffe8dc" stop-opacity="0"/></linearGradient><linearGradient id="SVGID_2_" gradientUnits="userSpaceOnUse" x1="250.5" x2="250.5" y1="462.668" y2="42.668"><stop offset="0" stop-color="#ff4d4d" stop-opacity=".4"/><stop offset="1" stop-color="#ff4d4d" stop-opacity="0"/></linearGradient><g><path d="m512 196.803c0-77.209-114.615-139.799-256-139.799s-256 62.59-256 139.799c0 12.48 2.998 24.577 8.62 36.089 10.007 20.491 12.502 43.828 7.537 66.086-2.036 9.127-3.179 18.59-3.333 28.294-1.235 77.812 61.961 142.061 139.782 142.06 58.443 0 108.503-35.865 129.385-86.785 11.468-27.964 35.565-48.919 65.155-55.077 96.38-20.057 164.854-70.992 164.854-130.667z" fill="url(#SVGID_1_)"/><g><g><g><g><g fill="#6c6cff"><path d="m380.943 152.258h-21.522v-66.913h21.522c3.803 0 6.885 3.083 6.885 6.885v53.143c0 3.803-3.082 6.885-6.885 6.885z"/><path d="m116.907 221.111h24.672v-135.766h-24.672c-3.803 0-3.735 3.083-3.735 6.885v121.995c0 3.803-.068 6.886 3.735 6.886z"/></g></g><path d="m346.387 462.668h-191.774c-12.208 0-22.105-9.897-22.105-22.105v-375.79c0-12.208 9.897-22.105 22.105-22.105h191.775c12.208 0 22.105 9.897 22.105 22.105v375.789c0 12.209-9.897 22.106-22.106 22.106z" fill="#ff9d33"/><path d="m132.507 94.795h235.985v315.746h-235.985z" fill="#fff"/><g fill="#ebebff"><circle cx="317.041" cy="330.155" r="36.513"/><path d="m205.055 207.75h-42.191c-2.761 0-5-2.238-5-5v-42.191c0-2.761 2.239-5 5-5h42.191c2.761 0 5 2.239 5 5v42.191c0 2.762-2.239 5-5 5z"/></g></g></g><g><path d="m270.76 73.668h-40.52c-2.762 0-5-2.239-5-5s2.238-5 5-5h40.52c2.762 0 5 2.239 5 5s-2.239 5-5 5z" fill="#ff4d4d"/></g><g><path d="m230.167 429.668v12.667c0 2.761 2.239 5 5 5h30.667c2.762 0 5-2.239 5-5v-12.667c0-2.761-2.238-5-5-5h-30.667c-2.762 0-5 2.238-5 5z" fill="#ff4d4d"/></g><g><g><path d="m329.51 441.001h-16.52c-2.762 0-5-2.239-5-5s2.238-5 5-5h16.52c2.762 0 5 2.239 5 5 0 2.762-2.239 5-5 5z" fill="#ff4d4d"/></g><g><path d="m188.01 441.001h-16.52c-2.762 0-5-2.239-5-5s2.238-5 5-5h16.52c2.762 0 5 2.239 5 5 0 2.762-2.239 5-5 5z" fill="#ff4d4d"/></g></g><path d="m180.333 132.635c-1.28 0-2.559-.488-3.536-1.465l-2.298-2.298-2.298 2.298c-1.952 1.953-5.119 1.953-7.071.001-1.953-1.953-1.953-5.118 0-7.071l5.833-5.834c.938-.938 2.209-1.465 3.536-1.465 1.326 0 2.598.527 3.536 1.465l5.833 5.834c1.953 1.953 1.953 5.118 0 7.071-.975.976-2.255 1.464-3.535 1.464z" fill="#9494ff"/><g><path d="m294 366.668h-84.5c-2.762 0-5-2.239-5-5s2.238-5 5-5h84.5c2.762 0 5 2.239 5 5s-2.238 5-5 5z" fill="#ffab66"/></g><g><g><g><path d="m326.5 150.028c-9.161 0-16.613-7.453-16.613-16.613 0-9.161 7.453-16.613 16.613-16.613 9.161 0 16.613 7.453 16.613 16.613s-7.452 16.613-16.613 16.613zm0-23.227c-3.647 0-6.613 2.967-6.613 6.613s2.967 6.613 6.613 6.613 6.613-2.967 6.613-6.613-2.967-6.613-6.613-6.613z" fill="#ffab66"/></g><g><path d="m338.113 161.641c-2.761 0-5-2.239-5-5 0-3.646-2.967-6.613-6.613-6.613-3.647 0-6.613 2.967-6.613 6.613 0 2.761-2.239 5-5 5s-5-2.239-5-5c0-9.161 7.453-16.613 16.613-16.613 9.161 0 16.613 7.453 16.613 16.613 0 2.761-2.239 5-5 5z" fill="#ffab66"/></g></g><g><path d="m294 161.641h-12.5c-2.762 0-5-2.239-5-5s2.238-5 5-5h12.5c2.762 0 5 2.239 5 5s-2.238 5-5 5z" fill="#d9d9ff"/></g><g><path d="m294 144.415h-12.5c-2.762 0-5-2.239-5-5s2.238-5 5-5h12.5c2.762 0 5 2.239 5 5s-2.238 5-5 5z" fill="#d9d9ff"/></g></g><g><path d="m294 386.793h-84.5c-2.762 0-5-2.239-5-5s2.238-5 5-5h84.5c2.762 0 5 2.239 5 5s-2.238 5-5 5z" fill="#ffab66"/></g><g><g><g><path d="m335.75 230.26c-2.761 0-5-2.239-5-5v-21c0-2.761 2.239-5 5-5s5 2.239 5 5v21c0 2.761-2.239 5-5 5z" fill="#ff4d4d"/></g><g><path d="m165.25 312.549c-2.761 0-5-2.239-5-5v-21c0-2.761 2.239-5 5-5s5 2.239 5 5v21c0 2.761-2.239 5-5 5z" fill="#ff4d4d"/></g></g></g><g fill="#9494ff"><path d="m317.041 335.155h-133.082c-2.761 0-5-2.239-5-5v-148.5c0-2.761 2.239-5 5-5h133.082c2.761 0 5 2.239 5 5v148.5c0 2.761-2.239 5-5 5zm-128.082-10h123.082v-138.5h-123.082z"/><g><path d="m290 260.668h-75c-2.761 0-5-2.239-5-5v-17.5c0-2.761 2.239-5 5-5h75c2.761 0 5 2.239 5 5v17.5c0 2.761-2.239 5-5 5zm-70-10h65v-7.5h-65z"/><path d="m277.731 298.641h-50.463c-2.445 0-4.532-1.769-4.932-4.18l-6.269-37.723c-.453-2.724 1.389-5.299 4.112-5.752 2.726-.455 5.3 1.389 5.752 4.112l5.574 33.543h41.987l5.574-33.543c.453-2.723 3.022-4.568 5.752-4.112 2.724.453 4.565 3.028 4.112 5.752l-6.269 37.723c-.398 2.412-2.484 4.18-4.93 4.18z"/><path d="m261.511 298.641h-18.022c-2.646 0-4.834-2.062-4.991-4.704l-2.239-37.723c-.082-1.375.408-2.723 1.352-3.726.945-1.002 2.261-1.571 3.639-1.571h22.5c1.377 0 2.694.568 3.639 1.571.945 1.002 1.434 2.35 1.352 3.726l-2.239 37.723c-.156 2.642-2.344 4.704-4.991 4.704zm-13.31-10h8.599l1.645-27.723h-11.889z"/><g><path d="m233.896 243.169c-1.766 0-3.477-.937-4.387-2.594l-12.892-23.472c-1.33-2.42-.445-5.46 1.975-6.79 2.421-1.33 5.46-.445 6.79 1.975l12.892 23.472c1.33 2.42.445 5.46-1.975 6.789-.763.421-1.589.62-2.403.62z"/><path d="m271.103 243.169c-.814 0-1.639-.199-2.403-.619-2.42-1.329-3.305-4.369-1.975-6.789l12.892-23.472c1.329-2.42 4.371-3.304 6.79-1.975 2.42 1.329 3.305 4.369 1.975 6.79l-12.892 23.472c-.909 1.656-2.621 2.593-4.387 2.593z"/></g><path d="m279.833 279.78h-54.667c-2.761 0-5-2.239-5-5s2.239-5 5-5h54.667c2.761 0 5 2.239 5 5s-2.238 5-5 5z"/></g></g><g><path d="m211.833 330.168c0 7.64 6.193 13.833 13.833 13.833h49.667c7.64 0 13.833-6.193 13.833-13.833 0-7.64-6.193-13.833-13.833-13.833h-49.667c-7.639 0-13.833 6.193-13.833 13.833z" fill="#ff4d4d"/></g><g><path d="m84.5 244.568c-1.28 0-2.559-.488-3.536-1.464l-6.464-6.464-6.464 6.464c-1.953 1.952-5.118 1.952-7.071 0-1.953-1.953-1.953-5.119 0-7.071l10-10c1.953-1.952 5.118-1.952 7.071 0l10 10c1.953 1.953 1.953 5.119 0 7.071-.977.976-2.256 1.464-3.536 1.464z" fill="#6c6cff"/></g><g><path d="m447.5 265.668c-1.28 0-2.559-.488-3.536-1.464l-6.464-6.464-6.464 6.464c-1.953 1.952-5.118 1.952-7.071 0-1.953-1.953-1.953-5.119 0-7.071l10-10c1.953-1.952 5.118-1.952 7.071 0l10 10c1.953 1.953 1.953 5.119 0 7.071-.977.976-2.256 1.464-3.536 1.464z" fill="#6c6cff"/></g><path d="m77.5 136.835c-1.28 0-2.559-.488-3.536-1.464-1.953-1.953-1.953-5.119 0-7.071l10-10c1.953-1.952 5.118-1.952 7.071 0 1.953 1.953 1.953 5.119 0 7.071l-10 10c-.976.975-2.255 1.464-3.535 1.464z" fill="#ff6c6c"/><path d="m408.5 361.668c-1.28 0-2.559-.488-3.536-1.464-1.953-1.953-1.953-5.119 0-7.071l10-10c1.953-1.952 5.118-1.952 7.071 0 1.953 1.953 1.953 5.119 0 7.071l-10 10c-.976.976-2.255 1.464-3.535 1.464z" fill="#ff9d33"/><g><path d="m418.5 224.696c-1.28 0-2.559-.488-3.536-1.464l-6.464-6.464-6.464 6.464c-1.953 1.952-5.118 1.952-7.071 0-1.953-1.953-1.953-5.119 0-7.071l10-10c1.953-1.952 5.118-1.952 7.071 0l10 10c1.953 1.953 1.953 5.119 0 7.071-.977.976-2.256 1.464-3.536 1.464z" fill="#ff9d33"/></g></g><path d="m346.387 462.668h-191.774c-12.208 0-22.105-9.897-22.105-22.105v-375.79c0-12.208 9.897-22.105 22.105-22.105h191.775c12.208 0 22.105 9.897 22.105 22.105v375.789c0 12.209-9.897 22.106-22.106 22.106z" fill="url(#SVGID_2_)"/></g></svg>