<svg width="512" height="408" viewBox="0 0 512 408" fill="none" xmlns="http://www.w3.org/2000/svg">
<path d="M501.873 101.583C479.516 44.695 410.647 10.58 352.317 33.156C285.735 58.925 307.811 164.829 247.334 186.244C214.665 197.812 166.371 154.6 133.365 147.974C72.5444 135.764 17.4844 178.679 3.9264 238.108C-9.9056 298.738 12.2794 379.718 78.8934 396.174C158.243 415.776 199.576 344.445 266.142 323.963C334.452 302.944 410.405 352.585 466.956 292.187C508.736 247.566 524.011 157.915 501.873 101.583V101.583Z" fill="#90CC1C"/>
<path opacity="0.1" d="M476.847 126.593C476.847 87.0947 444.828 55.0757 405.33 55.0757C374.73 55.0757 348.632 74.3007 338.421 101.326H79.8135C68.7675 101.326 59.8135 110.28 59.8135 121.326V342.736C59.8135 353.782 68.7675 362.736 79.8135 362.736H432.188C443.234 362.736 452.188 353.782 452.188 342.736V180.596C467.286 167.483 476.847 148.161 476.847 126.593V126.593Z" fill="#2626BC"/>
<path d="M432.188 337.736H79.8125C68.7665 337.736 59.8125 328.782 59.8125 317.736V96.3257C59.8125 85.2797 68.7665 76.3257 79.8125 76.3257H432.188C443.233 76.3257 452.188 85.2797 452.188 96.3257V317.736C452.189 328.782 443.233 337.736 432.188 337.736Z" fill="white"/>
<path d="M452.191 96.3306V180.831C439.641 191.721 423.261 198.321 405.331 198.321C365.831 198.321 333.811 166.301 333.811 126.811C333.811 107.111 341.781 89.2606 354.671 76.3306H432.191C443.231 76.3306 452.191 85.2806 452.191 96.3306Z" fill="white"/>
<path d="M452.191 96.3306V121.541L274.281 258.211C269.061 262.221 262.571 264.421 256.001 264.421C249.431 264.421 242.941 262.221 237.721 258.211L59.8105 121.541V96.3306C59.8105 85.2806 68.7705 76.3306 79.8105 76.3306H432.191C443.231 76.3306 452.191 85.2806 452.191 96.3306V96.3306Z" fill="white"/>
<path d="M262.093 171.711L452.188 317.736C452.188 328.782 443.234 337.736 432.188 337.736H79.8125C68.7665 337.736 59.8125 328.782 59.8125 317.736L249.909 171.711C253.502 168.951 258.5 168.951 262.093 171.711V171.711Z" fill="white"/>
<path d="M324.491 219.641L274.281 258.211C269.061 262.221 262.571 264.421 256.001 264.421C249.431 264.421 242.941 262.221 237.721 258.211L187.511 219.641L249.911 171.711C253.501 168.951 258.501 168.951 262.091 171.711L324.491 219.641Z" fill="white"/>
<path d="M249.909 242.352L59.8125 96.3257C59.8125 85.2797 68.7665 76.3257 79.8125 76.3257H432.188C443.233 76.3257 452.188 85.2797 452.188 96.3257L262.093 242.352C258.5 245.111 253.502 245.111 249.909 242.352Z" fill="white"/>
<path d="M370.948 311.125H338.814C336.053 311.125 333.814 308.886 333.814 306.125V283.971C333.814 281.21 336.053 278.971 338.814 278.971H370.948C373.709 278.971 375.948 281.21 375.948 283.971V306.125C375.948 308.887 373.709 311.125 370.948 311.125Z" fill="#02FFB3"/>
<path d="M311.871 290.743H284.038C281.276 290.743 279.038 288.504 279.038 285.743C279.038 282.982 281.276 280.743 284.038 280.743H311.871C314.633 280.743 316.871 282.982 316.871 285.743C316.871 288.504 314.633 290.743 311.871 290.743Z" fill="white"/>
<path d="M311.871 311.125H214.038C211.276 311.125 209.038 308.886 209.038 306.125C209.038 303.364 211.276 301.125 214.038 301.125H311.871C314.633 301.125 316.871 303.364 316.871 306.125C316.871 308.886 314.633 311.125 311.871 311.125Z" fill="white"/>
<path d="M405.33 173.11C444.828 173.11 476.847 141.09 476.847 101.593C476.847 62.0949 444.828 30.0757 405.33 30.0757C365.833 30.0757 333.813 62.0949 333.813 101.593C333.813 141.09 365.833 173.11 405.33 173.11Z" fill="white"/>
<path d="M405.33 178.11C447.521 178.11 481.847 143.785 481.847 101.593C481.847 59.4007 447.522 25.0757 405.33 25.0757C363.138 25.0757 328.813 59.4007 328.813 101.593C328.813 126.137 340.442 148.003 358.466 162.014L259.046 238.386C257.255 239.764 254.749 239.765 252.954 238.386L64.9925 93.9997C66.1135 86.8297 72.3335 81.3257 79.8125 81.3257H309.178C311.94 81.3257 314.178 79.0867 314.178 76.3257C314.178 73.5647 311.94 71.3257 309.178 71.3257H79.8135C66.0285 71.3257 54.8135 82.5407 54.8135 96.3257V317.736C54.8135 331.521 66.0285 342.736 79.8135 342.736H432.188C445.973 342.736 457.188 331.521 457.188 317.736V185.596C457.188 182.835 454.95 180.596 452.188 180.596C449.426 180.596 447.188 182.835 447.188 185.596V307.59L316.28 207.031L367.22 167.901C378.45 174.381 391.459 178.11 405.33 178.11V178.11ZM195.72 207.031L64.8135 307.59V106.472L195.72 207.031ZM446.99 320.049C445.872 327.223 439.67 332.736 432.188 332.736H79.8135C72.3305 332.736 66.1285 327.223 65.0105 320.049L203.929 213.336L246.863 246.316C249.553 248.382 252.777 249.416 256.001 249.416C259.225 249.416 262.448 248.383 265.139 246.316L308.073 213.335L446.99 320.049ZM338.813 101.593C338.813 64.9157 368.652 35.0757 405.33 35.0757C442.008 35.0757 471.847 64.9147 471.847 101.593C471.847 138.271 442.008 168.11 405.33 168.11C368.652 168.11 338.813 138.27 338.813 101.593Z" fill="#00B44B"/>
<path d="M374.115 77.2036L384.321 101.593L374.115 125.982C372.382 130.124 376.563 134.274 380.691 132.51L442.31 106.191C446.358 104.462 446.358 98.7236 442.31 96.9946L380.691 70.6757C376.563 68.9117 372.382 73.0616 374.115 77.2036V77.2036Z" fill="#00B44B"/>
<path d="M407.601 106.261L376.876 119.391L384.318 101.591L376.867 83.7905L407.601 96.9205C411.434 98.5605 411.434 104.631 407.601 106.261Z" fill="#21B960"/>
<path d="M330.828 29.6708C327.114 29.6708 323.401 28.2578 320.575 25.4308C314.921 19.7768 314.921 10.5778 320.575 4.92481C326.226 -0.727191 335.427 -0.729191 341.08 4.92481C346.734 10.5788 346.734 19.7778 341.08 25.4308C338.254 28.2578 334.541 29.6708 330.828 29.6708ZM330.828 10.6798C329.676 10.6798 328.523 11.1178 327.645 11.9958C325.891 13.7498 325.891 16.6048 327.645 18.3598C329.401 20.1138 332.253 20.1148 334.009 18.3598C335.763 16.6058 335.763 13.7508 334.009 11.9958C333.132 11.1188 331.979 10.6798 330.828 10.6798V10.6798Z" fill="#00ECA2"/>
<path d="M218.538 407.315C214.825 407.315 211.111 405.901 208.285 403.075C202.631 397.421 202.631 388.222 208.285 382.569C213.937 376.916 223.139 376.916 228.791 382.569C234.445 388.223 234.445 397.422 228.791 403.075C225.965 405.902 222.251 407.315 218.538 407.315V407.315ZM218.538 388.324C217.386 388.324 216.233 388.762 215.355 389.64C213.601 391.394 213.601 394.249 215.355 396.004C217.111 397.759 219.964 397.759 221.72 396.004C223.474 394.25 223.474 391.395 221.72 389.64C220.843 388.763 219.69 388.324 218.538 388.324V388.324Z" fill="#00ECA2"/>
<path d="M294.78 42.5468C293.501 42.5468 292.22 42.0589 291.245 41.0829L285.28 35.1189L279.315 41.0829C277.364 43.0349 274.196 43.0349 272.245 41.0829C270.292 39.1299 270.292 35.9639 272.245 34.0119L281.745 24.5119C283.696 22.5599 286.864 22.5599 288.815 24.5119L298.315 34.0119C300.268 35.9649 300.268 39.1309 298.315 41.0829C297.34 42.0579 296.06 42.5468 294.78 42.5468Z" fill="#FF7EB8"/>
<path d="M439.747 388.322C438.468 388.322 437.187 387.834 436.212 386.858L430.247 380.894L424.282 386.858C422.331 388.81 419.163 388.81 417.212 386.858C415.259 384.905 415.259 381.739 417.212 379.787L426.712 370.287C428.663 368.335 431.831 368.335 433.782 370.287L443.282 379.787C445.235 381.74 445.235 384.906 443.282 386.858C442.307 387.833 441.026 388.322 439.747 388.322Z" fill="#FF7EB8"/>
<path d="M178.885 393.072C177.606 393.072 176.325 392.584 175.35 391.608L169.385 385.644L163.42 391.608C161.469 393.56 158.301 393.56 156.35 391.608C154.397 389.655 154.397 386.489 156.35 384.537L165.85 375.037C167.801 373.085 170.969 373.085 172.92 375.037L182.42 384.537C184.373 386.49 184.373 389.656 182.42 391.608C181.444 392.583 180.164 393.072 178.885 393.072Z" fill="#6583FE"/>
</svg>
